<svg xmlns="http://www.w3.org/2000/svg" viewBox="0 0 20 20"><defs><style>.cls-1{fill:#969fbc;}</style></defs><g id="Layer_2" data-name="Layer 2"><g id="Layer_1-2" data-name="Layer 1"><path class="cls-1" d="M4.06,8.75A.92.92,0,0,1,5,9.69v9.37a.92.92,0,0,1-.94.94H.94A.92.92,0,0,1,0,19.06V9.69a.92.92,0,0,1,.94-.94ZM1.84,18.16a.87.87,0,0,0,.66.28.87.87,0,0,0,.66-.28.92.92,0,0,0,0-1.32.87.87,0,0,0-.66-.28.87.87,0,0,0-.66.28.92.92,0,0,0,0,1.32ZM15,3.16a5.14,5.14,0,0,1-.62,2.23,7.82,7.82,0,0,0-.67,1.49h3.95a2.17,2.17,0,0,1,1.64.7A2.06,2.06,0,0,1,20,9.14a2.59,2.59,0,0,1-.74,1.91h0a3,3,0,0,1,.23,1.57,2.88,2.88,0,0,1-.58,1.56,3.09,3.09,0,0,1,0,1.6,3.28,3.28,0,0,1-.67,1.33A2.12,2.12,0,0,1,18,18.83a2.37,2.37,0,0,1-1.21.82,6.1,6.1,0,0,1-1.49.31c-.41,0-1,0-1.76,0h-.11a12.2,12.2,0,0,1-4.69-1.25,5.5,5.5,0,0,0-2-.62A.5.5,0,0,1,6.37,18a.41.41,0,0,1-.12-.31V9.3A.38.38,0,0,1,6.41,9,17.71,17.71,0,0,0,8.2,6.68,14.86,14.86,0,0,1,9.88,4.57a5.52,5.52,0,0,0,1-2.3C11.22.76,11.67,0,12.19,0A2.81,2.81,0,0,1,13,.12a2.46,2.46,0,0,1,.9.39,1.81,1.81,0,0,1,.78,1A4.1,4.1,0,0,1,15,3.16Z"/></g></g></svg>