<svg xmlns="http://www.w3.org/2000/svg" viewBox="0 0 20 20"><defs><style>.cls-1{fill:#969fbc;}</style></defs><g id="Layer_2" data-name="Layer 2"><g id="Layer_1-2" data-name="Layer 1"><g id="Layer_2-2" data-name="Layer 2"><g id="Layer_1-2-2" data-name="Layer 1-2"><path class="cls-1" d="M.94,11.25h0a.92.92,0,0,1-.9-.94V.9A.92.92,0,0,1,.94,0H4.1A.92.92,0,0,1,5,.94v9.41a.92.92,0,0,1-.94.9Zm.88-9.39a.93.93,0,0,0,0,1.3.87.87,0,0,0,.66.28.87.87,0,0,0,.66-.28l0,0a.93.93,0,0,0,0-1.3.87.87,0,0,0-.66-.28.87.87,0,0,0-.66.28ZM14.68,18.49a1.81,1.81,0,0,1-.78,1,2.49,2.49,0,0,1-.9.39,2.79,2.79,0,0,1-.81.12c-.52,0-1-.76-1.31-2.27a5.45,5.45,0,0,0-1-2.3A15.56,15.56,0,0,1,8.2,13.32,17.48,17.48,0,0,0,6.41,11a.37.37,0,0,1-.16-.3V2.31A.39.39,0,0,1,6.37,2a.49.49,0,0,1,.37-.09,5.62,5.62,0,0,0,2-.62A12.16,12.16,0,0,1,13.43,0H15.3a6.27,6.27,0,0,1,1.49.31A2.41,2.41,0,0,1,18,1.17a2.12,2.12,0,0,1,.24,1.72,3.35,3.35,0,0,1,.67,1.33,3.1,3.1,0,0,1,0,1.6,2.92,2.92,0,0,1,.58,1.56A2.92,2.92,0,0,1,19.26,9h0A2.58,2.58,0,0,1,20,10.86a2.06,2.06,0,0,1-.7,1.56,2.17,2.17,0,0,1-1.64.7H13.71a8,8,0,0,0,.67,1.49A5.14,5.14,0,0,1,15,16.84,4,4,0,0,1,14.68,18.49Z"/></g></g></g></g></svg>