<svg width="15" height="14" viewBox="0 0 15 14" fill="none" xmlns="http://www.w3.org/2000/svg">
<path d="M6.8125 0.125C7 -0.0416667 7.17708 -0.0416667 7.34375 0.125L13.875 6.6875C14.0625 6.85417 14.0625 7.02083 13.875 7.1875L7.34375 13.75C7.17708 13.9167 7 13.9167 6.8125 13.75L6.1875 13.125C6.125 13.0625 6.09375 12.9792 6.09375 12.875C6.09375 12.7708 6.125 12.6771 6.1875 12.5938L11.0312 7.75H0.375C0.125 7.75 0 7.625 0 7.375V6.5C0 6.25 0.125 6.125 0.375 6.125H11.0312L6.1875 1.28125C6.02083 1.09375 6.02083 0.916667 6.1875 0.75L6.8125 0.125Z" fill="white"/>
</svg>
