<svg width="44" height="44" viewBox="0 0 44 44" xmlns="http://www.w3.org/2000/svg" fill="none"><circle cx="22" cy="22" r="22" fill="#019540"/><path d="M32.984 28.094c.219.437.469.875.75 1.312.313.406.547.719.703.938l.328.328c.313.344.375.734.188 1.172-.188.437-.516.656-.984.656-2.031 0-3.984-.609-5.859-1.828-.938.219-1.875.328-2.813.328-2 0-3.813-.422-5.438-1.266-1.594-.844-2.766-1.953-3.516-3.328-.469-.062-.922-.141-1.359-.234-1.844 1.219-3.797 1.828-5.859 1.828-.469 0-.797-.219-.984-.656-.188-.438-.125-.828.188-1.172.656-.625 1.25-1.484 1.781-2.578-1.375-1.344-2.063-2.875-2.063-4.594 0-2.063.953-3.828 2.859-5.297 1.906-1.469 4.203-2.203 6.891-2.203 2 0 3.813.422 5.438 1.266 1.625.844 2.813 1.953 3.563 3.328 2.344.281 4.297 1.125 5.859 2.531 1.594 1.375 2.391 3 2.391 4.875 0 1.719-.688 3.25-2.063 4.594zm-18.422-4.313l.938.188c.75.187 1.516.281 2.297.281 2.031 0 3.781-.516 5.25-1.547 1.5-1.031 2.25-2.266 2.25-3.703 0-1.438-.75-2.672-2.25-3.703-1.469-1.031-3.219-1.547-5.25-1.547s-3.797.516-5.297 1.547c-1.469 1.031-2.203 2.266-2.203 3.703 0 1.094.469 2.094 1.406 3l1.125 1.125-.703 1.5-.375.656c.688-.219 1.359-.547 2.016-.984l.797-.516zm16.828 2.719c.938-.906 1.406-1.906 1.406-3 0-1.125-.5-2.141-1.5-3.047-1-.938-2.266-1.578-3.797-1.922l.047.469c0 1.25-.375 2.422-1.125 3.516-.719 1.063-1.719 1.938-3 2.625-1.281.688-2.703 1.109-4.266 1.266 1.531 1.563 3.578 2.344 6.141 2.344.781 0 1.547-.094 2.297-.281l.937-.188.797.516c.656.438 1.328.766 2.016.984l-.375-.656-.703-1.5 1.125-1.125z" fill="#fff"/></svg>