<svg xmlns="http://www.w3.org/2000/svg" viewBox="0 0 20 20"><defs><style>.cls-1{fill:#969fbc;}</style></defs><path class="cls-1" d="M4.06 8.75a.92.92 0 0 1 .94.94v9.37a.92.92 0 0 1-.94.94h-3.12a.92.92 0 0 1-.94-.94v-9.37a.92.92 0 0 1 .94-.94zm-2.22 9.41a.87.87 0 0 0 .66.28.87.87 0 0 0 .66-.28.92.92 0 0 0 0-1.32.87.87 0 0 0-.66-.28.87.87 0 0 0-.66.28.92.92 0 0 0 0 1.32zm13.16-15a5.14 5.14 0 0 1-.62 2.23 7.82 7.82 0 0 0-.67 1.49h3.95a2.17 2.17 0 0 1 1.64.7 2.06 2.06 0 0 1 .7 1.56 2.59 2.59 0 0 1-.74 1.91 3 3 0 0 1 .23 1.57 2.88 2.88 0 0 1-.58 1.56 3.09 3.09 0 0 1 0 1.6 3.28 3.28 0 0 1-.67 1.33 2.12 2.12 0 0 1-.24 1.72 2.37 2.37 0 0 1-1.21.82 6.1 6.1 0 0 1-1.49.31h-1.87a12.2 12.2 0 0 1-4.69-1.25 5.5 5.5 0 0 0-2-.62.5.5 0 0 1-.37-.09.41.41 0 0 1-.12-.31v-8.39a.38.38 0 0 1 .16-.3 17.71 17.71 0 0 0 1.79-2.32 14.86 14.86 0 0 1 1.68-2.11 5.52 5.52 0 0 0 1-2.3c.34-1.51.79-2.27 1.31-2.27a2.81 2.81 0 0 1 .81.12 2.46 2.46 0 0 1 .9.39 1.81 1.81 0 0 1 .78 1 4.1 4.1 0 0 1 .32 1.65z" id="Layer_1-2"/></svg>