<svg width="15" height="14" viewBox="0 0 15 14" xmlns="http://www.w3.org/2000/svg" fill="none"><path d="M2.197 1.787c1.465-1.191 3.232-1.787 5.303-1.787 2.07 0 3.838.596 5.303 1.787 1.465 1.191 2.197 2.627 2.197 4.307 0 1.68-.732 3.115-2.197 4.307-1.465 1.191-3.232 1.787-5.303 1.787-1.094 0-2.139-.185-3.135-.557-1.27.996-2.646 1.494-4.131 1.494l-.117-.059-.088-.088c-.039-.098-.029-.186.029-.264.078-.059.195-.195.352-.41.176-.195.4-.527.674-.996.273-.488.469-.947.586-1.377-1.113-1.113-1.67-2.393-1.67-3.838 0-1.68.732-3.115 2.197-4.307z" fill="#221B2E"/></svg>