<svg width="16" height="16" viewBox="0 0 16 16" xmlns="http://www.w3.org/2000/svg" fill="none"><path d="M15.375 0c.25 0 .375.125.375.375v6c0 .25-.125.375-.375.375h-6c-.25 0-.375-.125-.375-.375v-.875c0-.104.031-.188.094-.25.083-.083.177-.125.281-.125l3.969.094c-.5-1.083-1.25-1.948-2.25-2.594-1-.667-2.115-1-3.344-1-1.688 0-3.135.604-4.344 1.813-1.188 1.188-1.781 2.625-1.781 4.313 0 1.688.594 3.135 1.781 4.344 1.208 1.187 2.656 1.781 4.344 1.781 1.563 0 2.917-.521 4.063-1.563.188-.146.365-.135.531.031l.625.625c.187.187.177.364-.031.531-1.479 1.333-3.208 2-5.188 2-2.146 0-3.979-.75-5.5-2.25-1.5-1.521-2.25-3.354-2.25-5.5 0-2.125.75-3.948 2.25-5.469 1.521-1.521 3.344-2.281 5.469-2.281 1.333 0 2.573.313 3.719.938s2.073 1.469 2.781 2.531l-.094-3.094c0-.104.031-.188.094-.25.083-.083.177-.125.281-.125h.875z" fill="#969FBC"/></svg>