<svg width="0" height="0" class="hidden">
    <symbol xmlns="http://www.w3.org/2000/svg" viewBox="0 0 20 20" id="like">
        <path d="M4.06 8.75a.92.92 0 01.94.94v9.37a.92.92 0 01-.94.94H.94a.92.92 0 01-.94-.94V9.69a.92.92 0 01.94-.94zm-2.22 9.41a.87.87 0 00.66.28.87.87 0 00.66-.28.92.92 0 000-1.32.87.87 0 00-.66-.28.87.87 0 00-.66.28.92.92 0 000 1.32zM15 3.16a5.14 5.14 0 01-.62 2.23 7.82 7.82 0 00-.67 1.49h3.95a2.17 2.17 0 011.64.7 2.06 2.06 0 01.7 1.56 2.59 2.59 0 01-.74 1.91 3 3 0 01.23 1.57 2.88 2.88 0 01-.58 1.56 3.09 3.09 0 010 1.6 3.28 3.28 0 01-.67 1.33 2.12 2.12 0 01-.24 1.72 2.37 2.37 0 01-1.21.82 6.1 6.1 0 01-1.49.31h-1.87a12.2 12.2 0 01-4.69-1.25 5.5 5.5 0 00-2-.62.5.5 0 01-.37-.09.41.41 0 01-.12-.31V9.3a.38.38 0 01.16-.3A17.71 17.71 0 008.2 6.68a14.86 14.86 0 011.68-2.11 5.52 5.52 0 001-2.3C11.22.76 11.67 0 12.19 0a2.81 2.81 0 01.81.12 2.46 2.46 0 01.9.39 1.81 1.81 0 01.78 1A4.1 4.1 0 0115 3.16z"></path>
    </symbol>
    <symbol xmlns="http://www.w3.org/2000/svg" viewBox="0 0 20 20" id="unlike">
        <path d="M.94,11.25h0a.92.92,0,0,1-.9-.94V.9A.92.92,0,0,1,.94,0H4.1A.92.92,0,0,1,5,.94v9.41a.92.92,0,0,1-.94.9Zm.88-9.39a.93.93,0,0,0,0,1.3.87.87,0,0,0,.66.28.87.87,0,0,0,.66-.28l0,0a.93.93,0,0,0,0-1.3.87.87,0,0,0-.66-.28.87.87,0,0,0-.66.28ZM14.68,18.49a1.81,1.81,0,0,1-.78,1,2.49,2.49,0,0,1-.9.39,2.79,2.79,0,0,1-.81.12c-.52,0-1-.76-1.31-2.27a5.45,5.45,0,0,0-1-2.3A15.56,15.56,0,0,1,8.2,13.32,17.48,17.48,0,0,0,6.41,11a.37.37,0,0,1-.16-.3V2.31A.39.39,0,0,1,6.37,2a.49.49,0,0,1,.37-.09,5.62,5.62,0,0,0,2-.62A12.16,12.16,0,0,1,13.43,0H15.3a6.27,6.27,0,0,1,1.49.31A2.41,2.41,0,0,1,18,1.17a2.12,2.12,0,0,1,.24,1.72,3.35,3.35,0,0,1,.67,1.33,3.1,3.1,0,0,1,0,1.6,2.92,2.92,0,0,1,.58,1.56A2.92,2.92,0,0,1,19.26,9h0A2.58,2.58,0,0,1,20,10.86a2.06,2.06,0,0,1-.7,1.56,2.17,2.17,0,0,1-1.64.7H13.71a8,8,0,0,0,.67,1.49A5.14,5.14,0,0,1,15,16.84,4,4,0,0,1,14.68,18.49Z"/>
    </symbol>
    <symbol xmlns="http://www.w3.org/2000/svg" viewBox="0 0 15 14" id="message">
        <path d="M2.197 1.787C3.662.596 5.429 0 7.5 0c2.07 0 3.838.596 5.303 1.787C14.268 2.978 15 4.414 15 6.094c0 1.68-.732 3.115-2.197 4.307-1.465 1.191-3.232 1.787-5.303 1.787a8.886 8.886 0 01-3.135-.557c-1.27.996-2.646 1.494-4.131 1.494l-.117-.059-.088-.088a.257.257 0 01.029-.264c.078-.059.195-.195.352-.41.176-.195.4-.527.674-.996a6.18 6.18 0 00.586-1.377C.557 8.818 0 7.538 0 6.093c0-1.68.732-3.115 2.197-4.307z"></path>
    </symbol>
    <symbol xmlns="http://www.w3.org/2000/svg" viewBox="0 0 8 5" id="arrow">
        <path d="M3.309 4.691L.137 1.464c-.164-.146-.164-.301 0-.465L.328.808c.146-.164.301-.164.465 0l2.734 2.789L6.261.808c.164-.146.319-.146.465 0l.191.191c.164.164.164.319 0 .465L3.745 4.691c-.146.146-.292.146-.438 0z"></path>
    </symbol>
    <symbol viewBox="0 0 15 14" xmlns="http://www.w3.org/2000/svg" id="arrow-ro">
        <path d="M6.8125 0.125C7 -0.0416667 7.17708 -0.0416667 7.34375 0.125L13.875 6.6875C14.0625 6.85417 14.0625 7.02083 13.875 7.1875L7.34375 13.75C7.17708 13.9167 7 13.9167 6.8125 13.75L6.1875 13.125C6.125 13.0625 6.09375 12.9792 6.09375 12.875C6.09375 12.7708 6.125 12.6771 6.1875 12.5938L11.0312 7.75H0.375C0.125 7.75 0 7.625 0 7.375V6.5C0 6.25 0.125 6.125 0.375 6.125H11.0312L6.1875 1.28125C6.02083 1.09375 6.02083 0.916667 6.1875 0.75L6.8125 0.125Z"/>
    </symbol>
    <symbol viewBox="0 0 16 16" xmlns="http://www.w3.org/2000/svg" id="refresh">
        <path d="M15.375 0c.25 0 .375.125.375.375v6c0 .25-.125.375-.375.375h-6c-.25 0-.375-.125-.375-.375v-.875c0-.104.031-.188.094-.25.083-.083.177-.125.281-.125l3.969.094c-.5-1.083-1.25-1.948-2.25-2.594-1-.667-2.115-1-3.344-1-1.688 0-3.135.604-4.344 1.813-1.188 1.188-1.781 2.625-1.781 4.313 0 1.688.594 3.135 1.781 4.344 1.208 1.187 2.656 1.781 4.344 1.781 1.563 0 2.917-.521 4.063-1.563.188-.146.365-.135.531.031l.625.625c.187.187.177.364-.031.531-1.479 1.333-3.208 2-5.188 2-2.146 0-3.979-.75-5.5-2.25-1.5-1.521-2.25-3.354-2.25-5.5 0-2.125.75-3.948 2.25-5.469 1.521-1.521 3.344-2.281 5.469-2.281 1.333 0 2.573.313 3.719.938s2.073 1.469 2.781 2.531l-.094-3.094c0-.104.031-.188.094-.25.083-.083.177-.125.281-.125h.875z"/>
    </symbol>
</svg>
