<?xml version="1.0" encoding="utf-8"?>
<!-- Generator: Adobe Illustrator 24.2.3, SVG Export Plug-In . SVG Version: 6.00 Build 0)  -->
<svg version="1.1" id="Layer_1" xmlns="http://www.w3.org/2000/svg" xmlns:xlink="http://www.w3.org/1999/xlink" x="0px" y="0px"
	 viewBox="0 0 20 20" style="enable-background:new 0 0 20 20;" xml:space="preserve">
<style type="text/css">
	.st0{fill:#969FBC;}
</style>
<g id="Layer_2_1_">
	<g id="Layer_1-2">
		<path class="st0" d="M0.9,11.3C0.9,11.3,0.9,11.3,0.9,11.3c-0.5,0-1-0.4-0.9-0.9l0-9.4c0,0,0,0,0,0C0,0.4,0.4,0,0.9,0l3.1,0
			c0,0,0,0,0,0C4.6,0,5,0.4,5,0.9v9.4c0,0,0,0,0,0c0,0.5-0.4,0.9-0.9,0.9H0.9z M1.8,1.9c-0.4,0.4-0.3,0.9,0,1.3
			C2,3.3,2.2,3.4,2.5,3.4c0.3,0,0.5-0.1,0.7-0.3c0,0,0,0,0,0c0.4-0.4,0.3-0.9,0-1.3C3,1.7,2.8,1.6,2.5,1.6C2.2,1.6,2,1.7,1.8,1.9
			C1.8,1.8,1.8,1.9,1.8,1.9z M14.7,18.5c-0.1,0.4-0.4,0.8-0.8,1c-0.3,0.2-0.6,0.3-0.9,0.4C12.7,20,12.5,20,12.2,20
			c-0.5,0-1-0.8-1.3-2.3c-0.2-0.8-0.5-1.6-1-2.3c-0.6-0.7-1.2-1.4-1.7-2.1c-0.5-0.8-1.1-1.6-1.8-2.3c-0.1-0.1-0.2-0.2-0.2-0.3V2.3
			c0-0.1,0-0.2,0.1-0.3c0.1-0.1,0.2-0.1,0.4-0.1c0.7-0.1,1.4-0.3,2-0.6c1.5-0.7,3.1-1.2,4.7-1.3h0.1c0.8,0,1.4,0,1.8,0
			c0.5,0,1,0.1,1.5,0.3c0.5,0.1,0.9,0.4,1.2,0.8c0.3,0.5,0.4,1.1,0.2,1.7c0.3,0.4,0.6,0.8,0.7,1.3c0.1,0.5,0.1,1.1,0,1.6
			c0.3,0.5,0.5,1,0.6,1.6c0.1,0.5,0,1.1-0.2,1.6l0,0c0.5,0.5,0.8,1.2,0.7,1.9c0,0.6-0.3,1.2-0.7,1.6c-0.4,0.5-1,0.7-1.6,0.7h-3.9
			c0.2,0.5,0.4,1,0.7,1.5c0.4,0.7,0.6,1.4,0.6,2.2C15,17.4,14.9,18,14.7,18.5z"/>
	</g>
</g>
</svg>
